<svg xmlns="http://www.w3.org/2000/svg" width="22.88" height="106.383" viewBox="0 0 22.88 106.383">
  <path id="Path_36293" data-name="Path 36293" d="M13.193-3.562a5.814,5.814,0,0,1,.383.789q.164.414.32.836.156-.438.328-.836t.391-.8l7.58-13.769a.9.9,0,0,1,.422-.438,1.943,1.943,0,0,1,.625-.078h2.235v22.4H22.82V-11.924q0-.328.016-.7t.047-.766L15.209.61a1.205,1.205,0,0,1-1.094.7h-.438a1.205,1.205,0,0,1-1.094-.7L4.738-13.44q.047.406.07.8t.023.719V4.533H2.175v-22.4H4.41a1.943,1.943,0,0,1,.625.078.9.9,0,0,1,.422.438ZM57.984-6.657a12.927,12.927,0,0,1-.8,4.618,10.576,10.576,0,0,1-2.25,3.618,10.058,10.058,0,0,1-3.493,2.352,11.779,11.779,0,0,1-4.509.836,11.72,11.72,0,0,1-4.5-.836,10.075,10.075,0,0,1-3.485-2.352A10.576,10.576,0,0,1,36.7-2.039a12.927,12.927,0,0,1-.8-4.618,12.927,12.927,0,0,1,.8-4.618,10.66,10.66,0,0,1,2.25-3.626,10.113,10.113,0,0,1,3.485-2.368,11.625,11.625,0,0,1,4.5-.844,11.683,11.683,0,0,1,4.509.844A10.1,10.1,0,0,1,54.937-14.9a10.66,10.66,0,0,1,2.25,3.626A12.927,12.927,0,0,1,57.984-6.657Zm-3.11,0a11.382,11.382,0,0,0-.563-3.7,7.834,7.834,0,0,0-1.594-2.774,6.917,6.917,0,0,0-2.5-1.743,8.489,8.489,0,0,0-3.282-.61,8.446,8.446,0,0,0-3.266.61,6.992,6.992,0,0,0-2.508,1.743,7.771,7.771,0,0,0-1.6,2.774A11.382,11.382,0,0,0,39-6.657a11.311,11.311,0,0,0,.563,3.7,7.781,7.781,0,0,0,1.6,2.766A6.909,6.909,0,0,0,43.668,1.54a8.543,8.543,0,0,0,3.266.6,8.586,8.586,0,0,0,3.282-.6,6.836,6.836,0,0,0,2.5-1.735,7.845,7.845,0,0,0,1.594-2.766A11.311,11.311,0,0,0,54.874-6.657ZM71.706-4.813V4.533H68.69v-22.4h6.33a13.83,13.83,0,0,1,3.673.43,7.009,7.009,0,0,1,2.555,1.242,4.975,4.975,0,0,1,1.493,1.961,6.555,6.555,0,0,1,.484,2.571,6.445,6.445,0,0,1-.375,2.219,5.861,5.861,0,0,1-1.086,1.852,6.5,6.5,0,0,1-1.735,1.4,8.588,8.588,0,0,1-2.321.875,3.2,3.2,0,0,1,1,.953L85.24,4.533H82.552a1.326,1.326,0,0,1-1.219-.641l-5.814-8a1.693,1.693,0,0,0-.578-.539A2.085,2.085,0,0,0,74-4.813Zm0-2.2h3.173a7.724,7.724,0,0,0,2.336-.32A4.754,4.754,0,0,0,78.9-8.243a3.76,3.76,0,0,0,1.024-1.4,4.568,4.568,0,0,0,.344-1.8,3.569,3.569,0,0,0-1.321-3.016,6.383,6.383,0,0,0-3.931-1.016H71.706Zm36.852-10.846v2.469H97.805v7.439h8.705v2.376H97.805V2.064h10.752V4.533h-13.8v-22.4Z" transform="translate(18.113 108.558) rotate(-90)" fill="#fff"/>
</svg>
