<svg id="Group_6475" data-name="Group 6475" xmlns="http://www.w3.org/2000/svg" xmlns:xlink="http://www.w3.org/1999/xlink" width="67.385" height="49.999" viewBox="0 0 67.385 49.999">
  <defs>
    <linearGradient id="linear-gradient" x1="-0.443" y1="0.5" x2="2.074" y2="0.5" gradientUnits="objectBoundingBox">
      <stop offset="0" stop-color="#1d1d1b"/>
      <stop offset="0.72" stop-color="#3c3c3b"/>
      <stop offset="1" stop-color="#575756"/>
    </linearGradient>
    <linearGradient id="linear-gradient-2" x1="-1.31" x2="1.197" xlink:href="#linear-gradient"/>
    <linearGradient id="linear-gradient-3" x1="-0.817" x2="1.613" xlink:href="#linear-gradient"/>
    <linearGradient id="linear-gradient-4" x1="-2.528" y1="0.5" x2="2.404" y2="0.5" gradientUnits="objectBoundingBox">
      <stop offset="0" stop-color="#6f6f6e"/>
      <stop offset="0.3" stop-color="#575756"/>
      <stop offset="0.91" stop-color="#3c3c3b"/>
      <stop offset="1" stop-color="#1d1d1b"/>
    </linearGradient>
    <linearGradient id="linear-gradient-5" y1="0.5" x2="2.171" y2="0.5" gradientUnits="objectBoundingBox">
      <stop offset="0" stop-color="#6f6f6e"/>
      <stop offset="0.11" stop-color="#575756"/>
      <stop offset="0.92" stop-color="#3c3c3b"/>
      <stop offset="1" stop-color="#1d1d1b"/>
    </linearGradient>
  </defs>
  <path id="Path_36275" data-name="Path 36275" d="M17.25,19.867,23.673,33.79,33.187,0Z" transform="translate(1.528)" fill="url(#linear-gradient)"/>
  <path id="Path_36276" data-name="Path 36276" d="M39.045,16.46,30.02,48.519,46.012,34.313Z" transform="translate(2.66 1.458)" fill="url(#linear-gradient-2)"/>
  <path id="Path_36277" data-name="Path 36277" d="M32.664,0,23.15,33.79l7.468,16.2.011-.011,9.025-32.059Z" transform="translate(2.051)" fill="url(#linear-gradient-3)"/>
  <g id="Group_6461" data-name="Group 6461" transform="translate(24.722 12.65)">
    <path id="Path_36278" data-name="Path 36278" d="M27.141,19.632l.142-.054a2.267,2.267,0,0,0,.631-.414,11.9,11.9,0,0,0,.925-1.11c.577-.708,1.252-1.524,1.829-2.243.479-.588,1.143-1.219.816-2.1-.337-.914-1.263-.914-1.97-1.023-2.253-.337-6.8-1.067-6.8-1.067l.381.991s4.42.653,6.651.969c.283.044.7.185.806.479.174.457-.283.893-.577,1.241-.784.925-1.535,1.829-2.3,2.711-.239.283-.512.762-1.012.7-.327-.044-.425-.348-.577-.762L24.528,13.9l-.816.316,1.415,3.679a8.166,8.166,0,0,0,.512,1.2,1.307,1.307,0,0,0,1.513.544Z" transform="translate(-22.71 -11.62)" fill="#fff"/>
    <path id="Path_36279" data-name="Path 36279" d="M30.831,15.994l-.142.054a2.268,2.268,0,0,0-.631.414,11.9,11.9,0,0,0-.925,1.11c-.577.708-1.252,1.524-1.829,2.243-.479.588-1.143,1.219-.816,2.1.337.914,1.263.914,1.97,1.023,2.253.337,6.8,1.067,6.8,1.067l-.381-.991s-4.42-.653-6.651-.969c-.283-.044-.7-.185-.806-.479-.174-.457.283-.893.577-1.241.784-.925,1.535-1.829,2.3-2.711.239-.283.512-.762,1.012-.7.327.044.425.348.577.762l1.557,4.05.816-.316-1.415-3.679a8.166,8.166,0,0,0-.512-1.2,1.307,1.307,0,0,0-1.513-.544Z" transform="translate(-22.383 -11.237)" fill="#fff"/>
    <path id="Path_36280" data-name="Path 36280" d="M31.351,30.582l.142-.054a2.268,2.268,0,0,0,.631-.414A11.9,11.9,0,0,0,33.049,29c.577-.708,1.252-1.524,1.829-2.243.479-.588,1.143-1.219.816-2.1-.337-.914-1.263-.914-1.97-1.023-2.253-.337-6.8-1.067-6.8-1.067l.381.991s4.42.653,6.651.969c.283.044.7.185.806.479.174.457-.283.893-.577,1.241-.784.925-1.535,1.829-2.3,2.711-.239.283-.512.762-1.012.7-.327-.044-.425-.348-.577-.762l-1.557-4.05-.816.316,1.415,3.679a8.166,8.166,0,0,0,.512,1.2,1.307,1.307,0,0,0,1.513.544Z" transform="translate(-22.337 -10.65)" fill="#fff"/>
    <path id="Path_36281" data-name="Path 36281" d="M35.041,26.954l-.142.054a2.268,2.268,0,0,0-.631.414,11.9,11.9,0,0,0-.925,1.11c-.577.708-1.252,1.524-1.829,2.243-.479.588-1.143,1.219-.816,2.1.337.914,1.263.914,1.97,1.023,2.253.337,6.8,1.067,6.8,1.067l-.381-.991s-4.42-.653-6.651-.969c-.283-.044-.7-.185-.806-.479-.174-.457.283-.893.577-1.241.784-.925,1.535-1.829,2.3-2.711.239-.283.512-.762,1.012-.7.327.044.425.348.577.762l1.557,4.05.816-.316L37.055,28.7a8.165,8.165,0,0,0-.512-1.2,1.307,1.307,0,0,0-1.513-.544Z" transform="translate(-22.01 -10.266)" fill="#fff"/>
  </g>
  <path id="Path_36282" data-name="Path 36282" d="M20.1,0c-4.855,0-8.513,3.364-9.645,8.273C8.752,15.654,0,49.989,0,49.989H17.744c2.243,0,3.266-1.5,3.952-3.723L25.2,33.79,34.716,0Z" fill="url(#linear-gradient-4)"/>
  <path id="Path_36283" data-name="Path 36283" d="M46.991,0c-2.243,0-3.266,1.5-3.952,3.723l-4,14.2L30.02,49.989h0L44.64,50c4.855,0,8.513-3.364,9.645-8.273C55.972,34.335,64.725,0,64.725,0H46.98Z" transform="translate(2.66)" fill="url(#linear-gradient-5)"/>
</svg>
