<svg xmlns="http://www.w3.org/2000/svg" width="22.88" height="105.029" viewBox="0 0 22.88 105.029">
  <path id="Path_36292" data-name="Path 36292" d="M3.737-17.863a1.359,1.359,0,0,1,.6.1,1.556,1.556,0,0,1,.445.414L17.746-.48q-.047-.406-.062-.789t-.016-.742V-17.863h2.655V4.518H18.792a1.3,1.3,0,0,1-.6-.125,1.518,1.518,0,0,1-.476-.422L4.768-12.881q.031.39.047.765t.016.687V4.518H2.175v-22.38Zm42.09,0V-15.4H35.082v7.434h8.7v2.374h-8.7V2.05H45.827V4.518H32.036v-22.38Zm8.106,0h2.514a1.074,1.074,0,0,1,.672.2,1,1,0,0,1,.359.515L62.1-1.589q.125.422.226.906t.2,1.015q.109-.531.219-1.023a8.172,8.172,0,0,1,.25-.9l5.263-15.555a1.143,1.143,0,0,1,.367-.492,1.006,1.006,0,0,1,.664-.226h.875a1.04,1.04,0,0,1,.664.2,1.109,1.109,0,0,1,.367.515L76.422-1.589a15.255,15.255,0,0,1,.5,1.859q.094-.515.172-.984a6.746,6.746,0,0,1,.2-.875l4.638-15.555a.976.976,0,0,1,.351-.5,1.029,1.029,0,0,1,.664-.219h2.358L78.327,4.518H75.61L69.94-12.553a9.447,9.447,0,0,1-.312-1.124q-.078.312-.148.6t-.148.523l-5.7,17.07H60.913Zm52.038,3.5a1.211,1.211,0,0,1-.3.351.659.659,0,0,1-.406.117,1.081,1.081,0,0,1-.617-.266,9.835,9.835,0,0,0-.89-.586,7.224,7.224,0,0,0-1.3-.586,5.578,5.578,0,0,0-1.835-.266,5.426,5.426,0,0,0-1.8.273,3.819,3.819,0,0,0-1.3.742,3.045,3.045,0,0,0-.789,1.1,3.5,3.5,0,0,0-.266,1.367,2.525,2.525,0,0,0,.461,1.554,3.969,3.969,0,0,0,1.218,1.054,9.332,9.332,0,0,0,1.718.757q.961.32,1.968.664t1.968.773a6.922,6.922,0,0,1,1.718,1.085,4.948,4.948,0,0,1,1.218,1.609,5.354,5.354,0,0,1,.461,2.343A7.555,7.555,0,0,1,106.7.48a6.355,6.355,0,0,1-1.46,2.241,6.831,6.831,0,0,1-2.358,1.5,8.674,8.674,0,0,1-3.178.547,9.7,9.7,0,0,1-3.959-.789A9.287,9.287,0,0,1,92.7,1.847L93.57.41a1.15,1.15,0,0,1,.3-.289.714.714,0,0,1,.4-.117,1.243,1.243,0,0,1,.75.351,12.49,12.49,0,0,0,1.054.773,8.053,8.053,0,0,0,1.531.773,6.04,6.04,0,0,0,2.194.351,5.77,5.77,0,0,0,1.921-.3,4.08,4.08,0,0,0,1.429-.836,3.62,3.62,0,0,0,.9-1.288,4.306,4.306,0,0,0,.312-1.671A2.8,2.8,0,0,0,103.9-3.5a3.819,3.819,0,0,0-1.21-1.085,8.46,8.46,0,0,0-1.71-.742l-1.968-.625A19.843,19.843,0,0,1,97.045-6.7a6.4,6.4,0,0,1-1.71-1.093,5.023,5.023,0,0,1-1.21-1.679,5.98,5.98,0,0,1-.461-2.491,5.928,5.928,0,0,1,.461-2.3,5.917,5.917,0,0,1,1.335-1.968A6.472,6.472,0,0,1,97.623-17.6a7.923,7.923,0,0,1,2.96-.515,9.473,9.473,0,0,1,3.42.593,7.876,7.876,0,0,1,2.7,1.718Z" transform="translate(18.112 107.204) rotate(-90)" fill="#fff"/>
</svg>
