<svg xmlns="http://www.w3.org/2000/svg" width="50" height="50" viewBox="0 0 50 50">
  <g id="Group_6394" data-name="Group 6394" transform="translate(-1820.001 -40)">
    <g id="Group_5511" data-name="Group 5511" transform="translate(1679.426 8.094)">
      <path id="Path_27777" data-name="Path 27777" d="M207.306,36.1a12.455,12.455,0,0,0-9.319-4.189h-4.312V45.183Z" transform="translate(-19.913 0)" fill="#0d2764"/>
      <path id="Path_27778" data-name="Path 27778" d="M159.3,31.907h-4.312a12.454,12.454,0,0,0-9.319,4.19L159.3,45.184Z" transform="translate(-1.908 0)" fill="#0d2764"/>
      <path id="Path_27779" data-name="Path 27779" d="M218.629,57.512V55.35l-3.244,2.162Z" transform="translate(-28.054 -8.792)" fill="#0d2764"/>
      <path id="Path_27780" data-name="Path 27780" d="M218.587,87.221V85.012h-3.313Z" transform="translate(-28.013 -19.915)" fill="#0d2764"/>
      <path id="Path_27781" data-name="Path 27781" d="M140.575,85.012V87.22l3.312-2.208Z" transform="translate(0 -19.915)" fill="#0d2764"/>
      <path id="Path_27782" data-name="Path 27782" d="M193.675,103.97h4.312a12.454,12.454,0,0,0,9.292-4.16l-13.6-9.067Z" transform="translate(-19.913 -22.064)" fill="#0d2764"/>
      <path id="Path_27783" data-name="Path 27783" d="M145.707,99.809A12.455,12.455,0,0,0,155,103.97h4.312V90.742Z" transform="translate(-1.925 -22.064)" fill="#0d2764"/>
      <path id="Path_27784" data-name="Path 27784" d="M140.575,55.351v2.162h3.243Z" transform="translate(0 -8.792)" fill="#0d2764"/>
      <path id="Path_27785" data-name="Path 27785" d="M160.8,31.907h-3.409V45.184L143.756,36.1a12.46,12.46,0,0,0-2.6,4.541l12.152,8.083h-6.483l-6.25-4.158v2l3.244,2.162h-3.244v3.411H160.8Z" transform="translate(0 0)" fill="#fff"/>
      <path id="Path_27786" data-name="Path 27786" d="M188.215,99.771h3.412V86.544l13.6,9.067a12.466,12.466,0,0,0,2.658-4.67l-12-7.979h6.482L208.44,87V85.171l-3.312-2.209h3.312V79.545H188.215Z" transform="translate(-17.865 -17.865)" fill="#fff"/>
      <path id="Path_27787" data-name="Path 27787" d="M191.627,48.721V47.088l14.633-9.731a12.588,12.588,0,0,0-1-1.262l-13.631,9.087V31.907h-3.412V52.132H208.44V48.721H205.2l3.244-2.162V44.407a12.48,12.48,0,0,0-.59-3.794l-12.189,8.109Z" transform="translate(-17.865 0)" fill="#fff"/>
      <path id="Path_27788" data-name="Path 27788" d="M140.575,79.545v3.417h3.312l-3.312,2.208v2.1a12.5,12.5,0,0,0,.551,3.674l12.007-7.984h4.254v1.476l-14.7,9.779a12.513,12.513,0,0,0,1.1,1.393l13.6-9.067V99.771H160.8V79.545Z" transform="translate(0 -17.865)" fill="#fff"/>
      <path id="Path_27789" data-name="Path 27789" d="M170.35,31.907H160.8V52.132H140.575V61.68H160.8V81.906h9.553V61.68h20.225V52.132H170.35Z" transform="translate(0)" fill="#c20320"/>
      <path id="Path_27790" data-name="Path 27790" d="M200.5,85.012l12,7.979a12.486,12.486,0,0,0,.55-3.67v-.275l-6.067-4.034Z" transform="translate(-22.471 -19.915)" fill="#c20320"/>
      <path id="Path_27791" data-name="Path 27791" d="M193.675,50.359v1.633h4.034L209.9,43.883a12.463,12.463,0,0,0-1.589-3.255Z" transform="translate(-19.913 -3.271)" fill="#c20320"/>
      <path id="Path_27792" data-name="Path 27792" d="M157.718,85.012h-4.254L141.457,93a12.432,12.432,0,0,0,1.558,3.272l14.7-9.779Z" transform="translate(-0.331 -19.915)" fill="#c20320"/>
      <path id="Path_27793" data-name="Path 27793" d="M153.308,53.96l-12.152-8.083a12.49,12.49,0,0,0-.581,3.769V49.8l6.25,4.158Z" transform="translate(0 -5.239)" fill="#c20320"/>
    </g>
  </g>
</svg>
