<svg xmlns="http://www.w3.org/2000/svg" xmlns:xlink="http://www.w3.org/1999/xlink" width="162.604" height="50" viewBox="0 0 162.604 50">
  <defs>
    <linearGradient id="linear-gradient" x1="-0.443" y1="0.5" x2="2.074" y2="0.5" gradientUnits="objectBoundingBox">
      <stop offset="0" stop-color="#1d1d1b"/>
      <stop offset="0.72" stop-color="#3c3c3b"/>
      <stop offset="1" stop-color="#575756"/>
    </linearGradient>
    <linearGradient id="linear-gradient-2" x1="-1.31" x2="1.197" xlink:href="#linear-gradient"/>
    <linearGradient id="linear-gradient-3" x1="-0.817" x2="1.613" xlink:href="#linear-gradient"/>
    <linearGradient id="linear-gradient-4" x1="-2.528" y1="0.5" x2="2.404" y2="0.5" gradientUnits="objectBoundingBox">
      <stop offset="0" stop-color="#6f6f6e"/>
      <stop offset="0.3" stop-color="#575756"/>
      <stop offset="0.91" stop-color="#3c3c3b"/>
      <stop offset="1" stop-color="#1d1d1b"/>
    </linearGradient>
    <linearGradient id="linear-gradient-5" y1="0.5" x2="2.171" y2="0.5" gradientUnits="objectBoundingBox">
      <stop offset="0" stop-color="#6f6f6e"/>
      <stop offset="0.11" stop-color="#575756"/>
      <stop offset="0.92" stop-color="#3c3c3b"/>
      <stop offset="1" stop-color="#1d1d1b"/>
    </linearGradient>
  </defs>
  <g id="ZIMO_NEWS_1" data-name="ZIMO NEWS 1" transform="translate(0 0)">
    <g id="Group_6462" data-name="Group 6462" transform="translate(0 0)">
      <path id="Path_36275" data-name="Path 36275" d="M17.25,19.867,23.673,33.79,33.187,0Z" transform="translate(1.528)" fill="url(#linear-gradient)"/>
      <path id="Path_36276" data-name="Path 36276" d="M39.045,16.46,30.02,48.519,46.012,34.313Z" transform="translate(2.66 1.458)" fill="url(#linear-gradient-2)"/>
      <path id="Path_36277" data-name="Path 36277" d="M32.664,0,23.15,33.79l7.468,16.2.011-.011,9.025-32.059Z" transform="translate(2.051)" fill="url(#linear-gradient-3)"/>
      <g id="Group_6461" data-name="Group 6461" transform="translate(24.722 12.65)">
        <path id="Path_36278" data-name="Path 36278" d="M27.141,19.632l.142-.054a2.267,2.267,0,0,0,.631-.414,11.9,11.9,0,0,0,.925-1.11c.577-.708,1.252-1.524,1.829-2.243.479-.588,1.143-1.219.816-2.1-.337-.914-1.263-.914-1.97-1.023-2.253-.337-6.8-1.067-6.8-1.067l.381.991s4.42.653,6.651.969c.283.044.7.185.806.479.174.457-.283.893-.577,1.241-.784.925-1.535,1.829-2.3,2.711-.239.283-.512.762-1.012.7-.327-.044-.425-.348-.577-.762L24.528,13.9l-.816.316,1.415,3.679a8.166,8.166,0,0,0,.512,1.2,1.307,1.307,0,0,0,1.513.544Z" transform="translate(-22.71 -11.62)" fill="#fff"/>
        <path id="Path_36279" data-name="Path 36279" d="M30.831,15.994l-.142.054a2.268,2.268,0,0,0-.631.414,11.9,11.9,0,0,0-.925,1.11c-.577.708-1.252,1.524-1.829,2.243-.479.588-1.143,1.219-.816,2.1.337.914,1.263.914,1.97,1.023,2.253.337,6.8,1.067,6.8,1.067l-.381-.991s-4.42-.653-6.651-.969c-.283-.044-.7-.185-.806-.479-.174-.457.283-.893.577-1.241.784-.925,1.535-1.829,2.3-2.711.239-.283.512-.762,1.012-.7.327.044.425.348.577.762l1.557,4.05.816-.316-1.415-3.679a8.166,8.166,0,0,0-.512-1.2,1.307,1.307,0,0,0-1.513-.544Z" transform="translate(-22.383 -11.237)" fill="#fff"/>
        <path id="Path_36280" data-name="Path 36280" d="M31.351,30.582l.142-.054a2.268,2.268,0,0,0,.631-.414A11.9,11.9,0,0,0,33.049,29c.577-.708,1.252-1.524,1.829-2.243.479-.588,1.143-1.219.816-2.1-.337-.914-1.263-.914-1.97-1.023-2.253-.337-6.8-1.067-6.8-1.067l.381.991s4.42.653,6.651.969c.283.044.7.185.806.479.174.457-.283.893-.577,1.241-.784.925-1.535,1.829-2.3,2.711-.239.283-.512.762-1.012.7-.327-.044-.425-.348-.577-.762l-1.557-4.05-.816.316,1.415,3.679a8.166,8.166,0,0,0,.512,1.2,1.307,1.307,0,0,0,1.513.544Z" transform="translate(-22.337 -10.65)" fill="#fff"/>
        <path id="Path_36281" data-name="Path 36281" d="M35.041,26.954l-.142.054a2.268,2.268,0,0,0-.631.414,11.9,11.9,0,0,0-.925,1.11c-.577.708-1.252,1.524-1.829,2.243-.479.588-1.143,1.219-.816,2.1.337.914,1.263.914,1.97,1.023,2.253.337,6.8,1.067,6.8,1.067l-.381-.991s-4.42-.653-6.651-.969c-.283-.044-.7-.185-.806-.479-.174-.457.283-.893.577-1.241.784-.925,1.535-1.829,2.3-2.711.239-.283.512-.762,1.012-.7.327.044.425.348.577.762l1.557,4.05.816-.316L37.055,28.7a8.165,8.165,0,0,0-.512-1.2,1.307,1.307,0,0,0-1.513-.544Z" transform="translate(-22.01 -10.266)" fill="#fff"/>
      </g>
      <path id="Path_36282" data-name="Path 36282" d="M20.1,0c-4.855,0-8.513,3.364-9.645,8.273C8.752,15.654,0,49.989,0,49.989H17.744c2.243,0,3.266-1.5,3.952-3.723L25.2,33.79,34.716,0Z" fill="url(#linear-gradient-4)"/>
      <path id="Path_36283" data-name="Path 36283" d="M46.991,0c-2.243,0-3.266,1.5-3.952,3.723l-4,14.2L30.02,49.989h0L44.64,50c4.855,0,8.513-3.364,9.645-8.273C55.972,34.335,64.725,0,64.725,0H46.98Z" transform="translate(2.66)" fill="url(#linear-gradient-5)"/>
    </g>
    <g id="Group_6465" data-name="Group 6465" transform="translate(76.529 0)">
      <g id="Group_6463" data-name="Group 6463" transform="translate(0)">
        <path id="Path_36284" data-name="Path 36284" d="M151.184,16.525a32.716,32.716,0,0,0-2.221-3.941c-1.426-2.482-3.037-5.345-4.474-7.838-1.176-2.057-2.275-4.7-5.214-4.746-3.059-.044-4.071,2.656-5.182,4.6C130.566,10.8,123.37,23.263,123.37,23.263h3.32s6.869-12.16,10.276-18.3c.435-.784,1.3-1.818,2.308-1.818,1.524,0,2.286,1.807,2.972,3.059,1.829,3.331,3.6,6.532,5.312,9.743.544,1.012,1.633,2.351.882,3.723-.49.893-1.48.838-2.885.838,0,.022-13.553,0-13.553,0v2.743h12.323a29.325,29.325,0,0,0,4.071-.131,4.1,4.1,0,0,0,3.277-3.81v-.49a7.737,7.737,0,0,0-.49-2.308Z" transform="translate(-65.598 0)"/>
        <path id="Path_36285" data-name="Path 36285" d="M70.725,1.393H85.3L70.5,22.077a1,1,0,0,0-.2.588v.61H87.413V21.881H72.543L87.3,1.252a1.171,1.171,0,0,0,.229-.675V0H70.714V1.393Z" transform="translate(-70.3 0.001)"/>
        <rect id="Rectangle_2672" data-name="Rectangle 2672" width="1.698" height="23.285" transform="translate(22.926 0.001)"/>
        <path id="Path_36286" data-name="Path 36286" d="M121.258.054A.592.592,0,0,0,121,.316l-9.144,16.177a5.125,5.125,0,0,0-.239.49c-.076.174-.142.348-.207.523a7.331,7.331,0,0,0-.425-.991L101.576.316A.558.558,0,0,0,101.3.054a1.156,1.156,0,0,0-.37-.054H99.78V23.285h1.459V3.44a6.9,6.9,0,0,0-.054-.925L110.59,18.8a.735.735,0,0,0,.653.425h.261a.713.713,0,0,0,.653-.425l9.166-16.275a8.915,8.915,0,0,0-.054.9V23.285h1.48V0h-1.165a.831.831,0,0,0-.359.054Z" transform="translate(-67.688 0.001)"/>
      </g>
      <g id="Group_6464" data-name="Group 6464" transform="translate(0 28.805)">
        <path id="Path_36287" data-name="Path 36287" d="M72.336,26.578a1.646,1.646,0,0,1,.425.392L85.018,42.918a5.954,5.954,0,0,1-.054-.751c0-.239-.011-.479-.011-.7V26.48h2.515V47.642H86.019a1.245,1.245,0,0,1-.566-.12,1.261,1.261,0,0,1-.446-.4L72.76,31.183c.022.25.033.49.044.718s.011.457.011.653V47.632H70.3V26.48h1.48a1.257,1.257,0,0,1,.566.1Z" transform="translate(-70.3 -26.458)"/>
        <path id="Path_36288" data-name="Path 36288" d="M103.441,26.48v2.33H93.285v7.032h8.23v2.243h-8.23V45.3h10.157v2.33H90.4V26.48h13.041Z" transform="translate(-68.519 -26.458)"/>
        <path id="Path_36289" data-name="Path 36289" d="M106.72,26.481h2.373a.973.973,0,0,1,.631.2.955.955,0,0,1,.337.49l4.365,14.707c.076.261.152.555.218.86s.12.621.185.958c.065-.337.142-.653.207-.969a7.258,7.258,0,0,1,.239-.849l4.975-14.707a1.056,1.056,0,0,1,.348-.468.966.966,0,0,1,.631-.218h.827a.973.973,0,0,1,.631.2,1.127,1.127,0,0,1,.348.49l4.942,14.707a13.935,13.935,0,0,1,.468,1.753c.054-.327.109-.631.163-.936a4.836,4.836,0,0,1,.2-.827l4.387-14.707a.867.867,0,0,1,.337-.468.959.959,0,0,1,.631-.207H136.4l-6.6,21.162h-2.569L121.873,31.5a8.66,8.66,0,0,1-.294-1.067c-.054.2-.1.392-.142.566a3.837,3.837,0,0,1-.142.49l-5.389,16.144h-2.569l-6.6-21.162Z" transform="translate(-67.073 -26.459)"/>
        <path id="Path_36290" data-name="Path 36290" d="M149.319,29.954a1.2,1.2,0,0,1-.272.327.576.576,0,0,1-.37.109.979.979,0,0,1-.566-.25,7.284,7.284,0,0,0-.827-.544,6.874,6.874,0,0,0-1.2-.544,5.174,5.174,0,0,0-1.7-.25,5.25,5.25,0,0,0-1.666.25,3.438,3.438,0,0,0-1.208.686,2.808,2.808,0,0,0-.729,1.023,3.267,3.267,0,0,0-.25,1.263,2.344,2.344,0,0,0,.425,1.437,3.707,3.707,0,0,0,1.132.98,8.528,8.528,0,0,0,1.589.7c.588.2,1.2.4,1.818.61s1.23.446,1.818.718a6.442,6.442,0,0,1,1.589,1,4.526,4.526,0,0,1,1.121,1.491,4.958,4.958,0,0,1,.425,2.166,7.052,7.052,0,0,1-.457,2.547,5.874,5.874,0,0,1-1.35,2.068,6.269,6.269,0,0,1-2.177,1.383,8,8,0,0,1-2.939.5,8.887,8.887,0,0,1-3.658-.729,8.59,8.59,0,0,1-2.819-1.97l.806-1.328a1.122,1.122,0,0,1,.283-.272.618.618,0,0,1,.37-.109,1.146,1.146,0,0,1,.7.327,11.611,11.611,0,0,0,.98.718,7.441,7.441,0,0,0,1.415.718,5.558,5.558,0,0,0,2.025.327,5.283,5.283,0,0,0,1.774-.272,3.668,3.668,0,0,0,1.317-.773,3.286,3.286,0,0,0,.827-1.2,3.914,3.914,0,0,0,.294-1.546,2.585,2.585,0,0,0-.425-1.535,3.453,3.453,0,0,0-1.121-1,7.754,7.754,0,0,0-1.578-.686c-.588-.185-1.2-.381-1.818-.577a17.336,17.336,0,0,1-1.818-.686,5.933,5.933,0,0,1-1.578-1.012,4.725,4.725,0,0,1-1.121-1.557,5.983,5.983,0,0,1,0-4.431,5.429,5.429,0,0,1,1.23-1.818,5.959,5.959,0,0,1,2-1.274,7.37,7.37,0,0,1,2.732-.479,8.958,8.958,0,0,1,3.168.544,7.331,7.331,0,0,1,2.5,1.589l-.675,1.328Z" transform="translate(-64.386 -26.46)"/>
      </g>
    </g>
  </g>
</svg>
